<?xml version="1.0" standalone="no"?>
<!DOCTYPE svg PUBLIC "-//W3C//DTD SVG 20010904//EN"
 "http://www.w3.org/TR/2001/REC-SVG-20010904/DTD/svg10.dtd">
<svg version="1.0" xmlns="http://www.w3.org/2000/svg"
 width="1280.000000pt" height="400.000000pt" viewBox="0 0 1280.000000 640.000000"
 preserveAspectRatio="xMidYMid meet">
<g transform="translate(0.000000,640.000000) scale(0.100000,-0.100000)"
fill="#3A8793" stroke="none">
<path d="M11750 4542 c0 -934 -3 -1221 -12 -1230 -16 -16 -680 -17 -709 -2
-18 10 -19 23 -19 174 l0 164 -56 42 c-32 25 -71 46 -92 49 l-37 6 -3 451 -2
450 -43 25 -42 24 -405 5 -405 5 -3 160 -3 160 -31 32 -32 33 -753 0 -753 0 0
-1295 c0 -1269 0 -1294 -19 -1305 -25 -13 -87 -13 -112 0 -18 10 -19 27 -19
581 l0 571 -25 30 -26 30 5 672 c2 369 7 694 11 721 6 47 4 53 -35 108 l-42
57 -356 -2 -357 -3 -3 -757 -2 -758 -148 0 c-81 0 -153 -4 -159 -8 -10 -6 -13
-101 -15 -398 l-3 -389 -275 -5 -275 -5 -5 -280 -5 -280 -95 0 -95 0 -3 1064
-2 1064 -238 333 -237 332 -3 -546 c-2 -500 -3 -548 -19 -559 -13 -10 -121
-13 -460 -13 l-443 0 0 -554 0 -554 -23 -6 c-12 -3 -48 -6 -79 -6 l-58 0 -2
-192 -3 -193 -275 0 -275 0 -5 550 -5 550 -34 43 c-19 23 -44 45 -55 48 -12 2
-210 3 -441 2 l-420 -3 -5 -480 c-3 -264 -7 -481 -8 -482 -1 -2 -51 -3 -112
-3 l-110 0 -2 -262 -3 -263 -24 -3 c-13 -2 -28 2 -32 10 -5 7 -9 325 -9 706
l0 692 -385 0 -385 0 -2 -252 -3 -253 -79 -3 c-57 -2 -82 1 -87 10 -5 7 -9
122 -9 256 l0 242 -385 0 -385 0 -2 -442 -3 -443 -224 -3 c-173 -2 -226 1
-233 10 -4 7 -8 451 -8 986 l0 972 -360 0 -360 0 0 -1862 0 -1861 547 6 c302
4 880 7 1285 7 l737 0 3 58 3 57 120 0 120 0 5 -45 5 -45 70 -5 c39 -3 75 -8
80 -11 6 -4 1977 -10 4380 -13 2829 -5 4382 -11 4405 -17 39 -11 416 -6 690 9
96 6 214 10 263 11 l87 1 0 315 c0 173 -1 316 -2 317 -2 1 -91 4 -198 7 l-195
6 -3 1979 -2 1978 -61 69 -61 69 -264 0 -264 0 0 -1218z m-3419 -2277 c6 -32
13 -297 10 -352 -1 -19 -130 -18 -137 1 -7 19 11 371 21 385 4 7 25 11 53 9
46 -3 47 -4 53 -43z"/>
</g>
</svg>
